ffmpeg started on 2016-12-06 at 11:44:55
Report written to "Output/x264/results/ffmpeg/crowd_run_2160p50fast13000k.log"
Command line:
Tools/ffmpeg/ffmpeg -benchmark -y -i Input/y4m/crowd_run_2160p50.y4m -c:v libx264 -preset fast -b:v 13000k -an Output/x264/encoded/crowd_run_2160p50fast13000k.mkv
ffmpeg version N-82227-gdb23fde Copyright (c) 2000-2016 the FFmpeg developers
  built with gcc 5.4.0 (Ubuntu 5.4.0-6ubuntu1~16.04.2) 20160609
  configuration: --prefix=/home/jaroslav/ffmpeg_build --pkg-config-flags=--static --extra-cflags=-I/home/jaroslav/ffmpeg_build/include --extra-ldflags=-L/home/jaroslav/ffmpeg_build/lib --bindir=/home/jaroslav/bin --enable-gpl --enable-libass --enable-libfdk-aac --enable-libfreetype --enable-libmp3lame --enable-libopus --enable-libtheora --enable-libvorbis --enable-libvpx --enable-libx264 --enable-libx265 --enable-nvenc --enable-libmfx --enable-libxvid --enable-libgsm --enable-libopencore-amrnb --enable-version3 --enable-nonfree
  libavutil      55. 35.100 / 55. 35.100
  libavcodec     57. 66.101 / 57. 66.101
  libavformat    57. 57.100 / 57. 57.100
  libavdevice    57.  2.100 / 57.  2.100
  libavfilter     6. 66.100 /  6. 66.100
  libswscale      4.  3.100 /  4.  3.100
  libswresample   2.  4.100 /  2.  4.100
  libpostproc    54.  2.100 / 54.  2.100
Input #0, yuv4mpegpipe, from 'Input/y4m/crowd_run_2160p50.y4m':
  Duration: 00:00:10.00, start: 0.000000, bitrate: 4976642 kb/s
    Stream #0:0: Video: rawvideo (I420 / 0x30323449), yuv420p(progressive), 3840x2160, SAR 1:1 DAR 16:9, 50 fps, 50 tbr, 50 tbn, 50 tbc
[libx264 @ 0x2dc51c0] using SAR=1/1
[libx264 @ 0x2dc51c0] using cpu capabilities: MMX2 SSE2Fast SSSE3 SSE4.2 AVX FMA3 AVX2 LZCNT BMI2
[libx264 @ 0x2dc51c0] profile High, level 5.2
[libx264 @ 0x2dc51c0] 264 - core 148 - H.264/MPEG-4 AVC codec - Copyleft 2003-2016 - http://www.videolan.org/x264.html - options: cabac=1 ref=2 deblock=1:0:0 analyse=0x3:0x113 me=hex subme=6 psy=1 psy_rd=1.00:0.00 mixed_ref=1 me_range=16 chroma_me=1 trellis=1 8x8dct=1 cqm=0 deadzone=21,11 fast_pskip=1 chroma_qp_offset=-2 threads=6 lookahead_threads=1 sliced_threads=0 nr=0 decimate=1 interlaced=0 bluray_compat=0 constrained_intra=0 bframes=3 b_pyramid=2 b_adapt=1 b_bias=0 direct=1 weightb=1 open_gop=0 weightp=1 keyint=250 keyint_min=25 scenecut=40 intra_refresh=0 rc_lookahead=30 rc=abr mbtree=1 bitrate=13000 ratetol=1.0 qcomp=0.60 qpmin=0 qpmax=69 qpstep=4 ip_ratio=1.40 aq=1:1.00
Output #0, matroska, to 'Output/x264/encoded/crowd_run_2160p50fast13000k.mkv':
  Metadata:
    encoder         : Lavf57.57.100
    Stream #0:0: Video: h264 (libx264) (H264 / 0x34363248), yuv420p, 3840x2160 [SAR 1:1 DAR 16:9], q=-1--1, 13000 kb/s, 50 fps, 1k tbn, 50 tbc
    Metadata:
      encoder         : Lavc57.66.101 libx264
    Side data:
      cpb: bitrate max/min/avg: 0/0/13000000 buffer size: 0 vbv_delay: -1
Stream mapping:
  Stream #0:0 -> #0:0 (rawvideo (native) -> h264 (libx264))
Press [q] to stop, [?] for help
frame=   12 fps=0.0 q=0.0 size=       0kB time=00:00:00.00 bitrate=N/A speed=   0x    frame=   17 fps= 15 q=0.0 size=       0kB time=00:00:00.00 bitrate=N/A speed=   0x    frame=   33 fps= 19 q=0.0 size=       0kB time=00:00:00.00 bitrate=N/A speed=   0x    frame=   37 fps= 11 q=0.0 size=       0kB time=00:00:00.00 bitrate=N/A speed=   0x    frame=   43 fps= 11 q=32.0 size=       1kB time=00:00:00.00 bitrate=5872.0kbits/s speed=0.000245x    frame=   46 fps=9.9 q=37.0 size=       1kB time=00:00:00.06 bitrate=  96.3kbits/s speed=0.0131x    frame=   50 fps=9.1 q=45.0 size=       1kB time=00:00:00.14 bitrate=  41.6kbits/s speed=0.0258x    frame=   55 fps=8.5 q=49.0 size=       1kB time=00:00:00.24 bitrate=  24.4kbits/s speed=0.0374x    frame=   57 fps=7.8 q=48.0 size=       1kB time=00:00:00.28 bitrate=  20.9kbits/s speed=0.0384x    frame=   58 fps=7.1 q=48.0 size=       1kB time=00:00:00.30 bitrate=  19.5kbits/s speed=0.0368x    frame=   61 fps=6.8 q=48.0 size=       1kB time=00:00:00.36 bitrate=  16.3kbits/s speed=0.0402x    frame=   66 fps=6.9 q=48.0 size=       1kB time=00:00:00.46 bitrate=  12.7kbits/s speed=0.048x    frame=   68 fps=6.7 q=48.0 size=       1kB time=00:00:00.50 bitrate=  11.7kbits/s speed=0.0491x    frame=   70 fps=6.3 q=47.0 size=       1kB time=00:00:00.54 bitrate=  10.9kbits/s speed=0.0486x    frame=   73 fps=6.1 q=47.0 size=       1kB time=00:00:00.60 bitrate=   9.8kbits/s speed=0.0505x    frame=   76 fps=6.0 q=47.0 size=       1kB time=00:00:00.66 bitrate=   8.9kbits/s speed=0.0521x    frame=   78 fps=5.7 q=47.0 size=       1kB time=00:00:00.70 bitrate=   8.4kbits/s speed=0.051x    frame=   84 fps=5.8 q=47.0 size=       1kB time=00:00:00.82 bitrate=   7.2kbits/s speed=0.0572x    frame=   88 fps=5.8 q=47.0 size=       1kB time=00:00:00.90 bitrate=   6.5kbits/s speed=0.0598x    frame=   91 fps=5.6 q=47.0 size=       1kB time=00:00:00.96 bitrate=   6.1kbits/s speed=0.0595x    frame=   95 fps=5.6 q=47.0 size=       1kB time=00:00:01.04 bitrate=   5.6kbits/s speed=0.0615x    frame=   98 fps=5.5 q=46.0 size=       1kB time=00:00:01.10 bitrate=   5.3kbits/s speed=0.0622x    frame=  105 fps=5.7 q=46.0 size=       1kB time=00:00:01.24 bitrate=   4.7kbits/s speed=0.0669x    frame=  107 fps=5.6 q=46.0 size=       1kB time=00:00:01.28 bitrate=   4.6kbits/s speed=0.0669x    frame=  111 fps=5.6 q=46.0 size=       1kB time=00:00:01.36 bitrate=   4.3kbits/s speed=0.0683x    frame=  116 fps=5.7 q=46.0 size=       1kB time=00:00:01.46 bitrate=   4.0kbits/s speed=0.0714x    frame=  119 fps=5.6 q=46.0 size=       1kB time=00:00:01.52 bitrate=   3.9kbits/s speed=0.0717x    frame=  122 fps=5.6 q=46.0 size=       1kB time=00:00:01.58 bitrate=   3.7kbits/s speed=0.0727x    frame=  123 fps=5.5 q=46.0 size=       1kB time=00:00:01.60 bitrate=   3.7kbits/s speed=0.0716x    frame=  129 fps=5.6 q=45.0 size=       1kB time=00:00:01.72 bitrate=   3.4kbits/s speed=0.0751x    frame=  132 fps=5.6 q=45.0 size=       1kB time=00:00:01.78 bitrate=   3.3kbits/s speed=0.0752x    frame=  138 fps=5.7 q=45.0 size=       1kB time=00:00:01.90 bitrate=   3.1kbits/s speed=0.0781x    frame=  144 fps=5.8 q=45.0 size=       1kB time=00:00:02.02 bitrate=   2.9kbits/s speed=0.0813x    frame=  146 fps=5.8 q=45.0 size=       1kB time=00:00:02.06 bitrate=   2.8kbits/s speed=0.0812x    frame=  150 fps=5.7 q=45.0 size=       1kB time=00:00:02.14 bitrate=   2.7kbits/s speed=0.0817x    frame=  156 fps=5.8 q=45.0 size=       1kB time=00:00:02.26 bitrate=   2.6kbits/s speed=0.0847x    frame=  163 fps=6.0 q=45.0 size=       1kB time=00:00:02.40 bitrate=   2.4kbits/s speed=0.0881x    frame=  171 fps=6.1 q=45.0 size=       1kB time=00:00:02.56 bitrate=   2.3kbits/s speed=0.0917x    frame=  179 fps=6.3 q=45.0 size=       1kB time=00:00:02.72 bitrate=   2.2kbits/s speed=0.0953x    frame=  183 fps=6.2 q=45.0 size=       1kB time=00:00:02.80 bitrate=   2.1kbits/s speed=0.0953x    frame=  190 fps=6.3 q=45.0 size=    5157kB time=00:00:02.94 bitrate=14363.4kbits/s speed=0.0977x    frame=  195 fps=6.4 q=45.0 size=    5157kB time=00:00:03.04 bitrate=13891.1kbits/s speed=0.0993x    frame=  200 fps=6.4 q=45.0 size=    5157kB time=00:00:03.14 bitrate=13448.8kbits/s speed=0.0998x    frame=  207 fps=6.5 q=44.0 size=    5157kB time=00:00:03.28 bitrate=12875.0kbits/s speed=0.103x    frame=  215 fps=6.6 q=44.0 size=    5157kB time=00:00:03.44 bitrate=12276.3kbits/s speed=0.105x    frame=  223 fps=6.7 q=44.0 size=    5157kB time=00:00:03.60 bitrate=11730.8kbits/s speed=0.108x    frame=  228 fps=6.8 q=44.0 size=    5157kB time=00:00:03.70 bitrate=11413.9kbits/s speed=0.11x    frame=  234 fps=6.8 q=44.0 size=    5157kB time=00:00:03.82 bitrate=11055.4kbits/s speed=0.111x    frame=  242 fps=6.9 q=44.0 size=    5157kB time=00:00:03.98 bitrate=10611.1kbits/s speed=0.114x    frame=  248 fps=7.0 q=44.0 size=    5157kB time=00:00:04.10 bitrate=10300.6kbits/s speed=0.116x    frame=  252 fps=7.0 q=44.0 size=    5157kB time=00:00:04.18 bitrate=10103.5kbits/s speed=0.116x    frame=  259 fps=7.1 q=44.0 size=    5157kB time=00:00:04.32 bitrate=9776.1kbits/s speed=0.118x    frame=  267 fps=7.2 q=44.0 size=    5157kB time=00:00:04.48 bitrate=9427.1kbits/s speed=0.121x    frame=  274 fps=7.3 q=44.0 size=    5157kB time=00:00:04.62 bitrate=9141.5kbits/s speed=0.123x    frame=  280 fps=7.3 q=44.0 size=    5157kB time=00:00:04.74 bitrate=8910.1kbits/s speed=0.124x    frame=  284 fps=7.3 q=44.0 size=    5157kB time=00:00:04.82 bitrate=8762.2kbits/s speed=0.124x    frame=  286 fps=7.3 q=41.0 size=    5157kB time=00:00:04.86 bitrate=8690.1kbits/s speed=0.123x    frame=  294 fps=7.4 q=44.0 size=    8231kB time=00:00:05.02 bitrate=13428.9kbits/s speed=0.126x    frame=  301 fps=7.4 q=44.0 size=    8231kB time=00:00:05.16 bitrate=13064.6kbits/s speed=0.128x    frame=  306 fps=7.5 q=44.0 size=    8231kB time=00:00:05.26 bitrate=12816.3kbits/s speed=0.128x    frame=  313 fps=7.5 q=44.0 size=    8231kB time=00:00:05.40 bitrate=12484.1kbits/s speed=0.13x    frame=  317 fps=7.6 q=44.0 size=    8231kB time=00:00:05.48 bitrate=12301.8kbits/s speed=0.131x    frame=  325 fps=7.6 q=44.0 size=    8231kB time=00:00:05.64 bitrate=11952.9kbits/s speed=0.133x    frame=  330 fps=7.7 q=44.0 size=    8231kB time=00:00:05.74 bitrate=11744.7kbits/s speed=0.133x    frame=  337 fps=7.7 q=44.0 size=    8231kB time=00:00:05.88 bitrate=11465.1kbits/s speed=0.134x    frame=  345 fps=7.8 q=44.0 size=    8231kB time=00:00:06.04 bitrate=11161.5kbits/s speed=0.136x    frame=  351 fps=7.8 q=44.0 size=    8231kB time=00:00:06.16 bitrate=10944.1kbits/s speed=0.137x    frame=  358 fps=7.9 q=44.0 size=    8231kB time=00:00:06.30 bitrate=10700.9kbits/s speed=0.138x    frame=  363 fps=7.9 q=44.0 size=    8231kB time=00:00:06.40 bitrate=10533.7kbits/s speed=0.139x    frame=  370 fps=7.9 q=44.0 size=    8231kB time=00:00:06.54 bitrate=10308.3kbits/s speed=0.14x    frame=  378 fps=8.0 q=44.0 size=    8231kB time=00:00:06.70 bitrate=10062.1kbits/s speed=0.142x    frame=  385 fps=8.0 q=44.0 size=    8231kB time=00:00:06.84 bitrate=9856.2kbits/s speed=0.143x    frame=  390 fps=8.1 q=44.0 size=    8231kB time=00:00:06.94 bitrate=9714.2kbits/s speed=0.144x    frame=  397 fps=8.1 q=44.0 size=    8231kB time=00:00:07.08 bitrate=9522.2kbits/s speed=0.145x    frame=  404 fps=8.2 q=44.0 size=    8231kB time=00:00:07.22 bitrate=9337.5kbits/s speed=0.146x    frame=  411 fps=8.2 q=44.0 size=    8231kB time=00:00:07.36 bitrate=9160.0kbits/s speed=0.147x    frame=  418 fps=8.2 q=44.0 size=    8231kB time=00:00:07.50 bitrate=8989.0kbits/s speed=0.148x    frame=  423 fps=8.2 q=44.0 size=    8231kB time=00:00:07.60 bitrate=8870.7kbits/s speed=0.148x    frame=  431 fps=8.3 q=44.0 size=    8231kB time=00:00:07.76 bitrate=8687.8kbits/s speed=0.15x    frame=  436 fps=8.3 q=44.0 size=    8231kB time=00:00:07.86 bitrate=8577.3kbits/s speed=0.15x    frame=  442 fps=8.4 q=44.0 size=    8231kB time=00:00:07.98 bitrate=8448.4kbits/s speed=0.151x    frame=  449 fps=8.4 q=44.0 size=    8231kB time=00:00:08.12 bitrate=8302.7kbits/s speed=0.152x    frame=  457 fps=8.4 q=44.0 size=   13359kB time=00:00:08.28 bitrate=13215.6kbits/s speed=0.153x    frame=  465 fps=8.5 q=44.0 size=   13359kB time=00:00:08.44 bitrate=12965.1kbits/s speed=0.154x    frame=  472 fps=8.5 q=44.0 size=   13359kB time=00:00:08.58 bitrate=12753.5kbits/s speed=0.155x    frame=  479 fps=8.5 q=44.0 size=   13359kB time=00:00:08.72 bitrate=12548.8kbits/s speed=0.156x    frame=  485 fps=8.6 q=44.0 size=   13359kB time=00:00:08.84 bitrate=12378.5kbits/s speed=0.156x    frame=  492 fps=8.6 q=44.0 size=   13359kB time=00:00:08.98 bitrate=12185.5kbits/s speed=0.157x    frame=  498 fps=8.6 q=44.0 size=   13359kB time=00:00:09.10 bitrate=12024.9kbits/s speed=0.158x    frame=  500 fps=8.3 q=-1.0 Lsize=   15999kB time=00:00:09.94 bitrate=13183.8kbits/s speed=0.165x    
video:15994kB audio:0kB subtitle:0kB other streams:0kB global headers:0kB muxing overhead: 0.029003%
bench: utime=157.320s
bench: maxrss=1595872kB
[libx264 @ 0x2dc51c0] frame I:2     Avg QP:33.45  size:461327
[libx264 @ 0x2dc51c0] frame P:126   Avg QP:43.11  size: 57794
[libx264 @ 0x2dc51c0] frame B:372   Avg QP:45.80  size: 21969
[libx264 @ 0x2dc51c0] consecutive B-frames:  0.8%  0.0%  0.0% 99.2%
[libx264 @ 0x2dc51c0] mb I  I16..4: 12.6% 74.1% 13.3%
[libx264 @ 0x2dc51c0] mb P  I16..4:  2.2%  7.0%  0.1%  P16..4: 32.1%  5.9%  2.7%  0.0%  0.0%    skip:49.9%
[libx264 @ 0x2dc51c0] mb B  I16..4:  1.4%  2.4%  0.0%  B16..8: 17.6%  1.8%  0.0%  direct: 7.4%  skip:69.3%  L0:42.5% L1:55.8% BI: 1.7%
[libx264 @ 0x2dc51c0] final ratefactor: 36.11
[libx264 @ 0x2dc51c0] 8x8 transform intra:68.5% inter:88.4%
[libx264 @ 0x2dc51c0] coded y,uvDC,uvAC intra: 25.5% 54.5% 17.6% inter: 4.7% 7.4% 0.1%
[libx264 @ 0x2dc51c0] i16 v,h,dc,p: 45% 22% 13% 19%
[libx264 @ 0x2dc51c0] i8 v,h,dc,ddl,ddr,vr,hd,vl,hu: 17% 11% 35%  6%  6%  7%  6%  7%  5%
[libx264 @ 0x2dc51c0] i4 v,h,dc,ddl,ddr,vr,hd,vl,hu: 21% 16% 15%  9%  9%  9%  8%  8%  7%
[libx264 @ 0x2dc51c0] i8c dc,h,v,p: 76%  8% 14%  2%
[libx264 @ 0x2dc51c0] Weighted P-Frames: Y:1.6% UV:0.0%
[libx264 @ 0x2dc51c0] ref P L0: 72.6% 27.4%
[libx264 @ 0x2dc51c0] ref B L0: 90.5%  9.5%
[libx264 @ 0x2dc51c0] ref B L1: 98.1%  1.9%
[libx264 @ 0x2dc51c0] kb/s:13101.69
